<?xml version="1.0" encoding="UTF-8"?>
<svg id="Layer_1" xmlns="http://www.w3.org/2000/svg" xmlns:xlink="http://www.w3.org/1999/xlink" version="1.1" viewBox="0 0 922 1005">
  <!-- Generator: Adobe Illustrator 29.5.1, SVG Export Plug-In . SVG Version: 2.1.0 Build 141)  -->
  <defs>
    <style>
      .st0, .st1, .st2, .st3 {
        fill: none;
      }

      .st4 {
        font-family: Axia-Regular, Axia;
      }

      .st4, .st5, .st6, .st7 {
        fill: #fff;
      }

      .st4, .st7 {
        font-size: 18px;
      }

      .st8, .st5, .st6, .st7 {
        font-family: AxiaBlack-Regular, Axia;
      }

      .st8, .st6 {
        font-size: 24px;
      }

      .st1 {
        stroke-width: 1px;
      }

      .st1, .st2, .st3 {
        stroke: #000;
        stroke-miterlimit: 10;
      }

      .st9 {
        clip-path: url(#clippath-11);
      }

      .st10 {
        clip-path: url(#clippath-10);
      }

      .st11 {
        clip-path: url(#clippath-13);
      }

      .st12 {
        clip-path: url(#clippath-12);
      }

      .st13 {
        clip-path: url(#clippath-1);
      }

      .st14 {
        clip-path: url(#clippath-3);
      }

      .st15 {
        clip-path: url(#clippath-4);
      }

      .st16 {
        clip-path: url(#clippath-2);
      }

      .st17 {
        clip-path: url(#clippath-7);
      }

      .st18 {
        clip-path: url(#clippath-6);
      }

      .st19 {
        clip-path: url(#clippath-9);
      }

      .st20 {
        clip-path: url(#clippath-8);
      }

      .st21 {
        clip-path: url(#clippath-5);
      }

      .st22 {
        letter-spacing: 0em;
      }

      .st23 {
        letter-spacing: 0em;
      }

      .st24 {
        letter-spacing: 0em;
      }

      .st25 {
        letter-spacing: 0em;
      }

      .st26 {
        letter-spacing: 0em;
      }

      .st27 {
        letter-spacing: 0em;
      }

      .st28 {
        letter-spacing: 0em;
      }

      .st29 {
        letter-spacing: 0em;
      }

      .st30 {
        letter-spacing: 0em;
      }

      .st31 {
        letter-spacing: 0em;
      }

      .st5 {
        font-size: 69.4px;
      }

      .st32 {
        opacity: .4;
      }

      .st33 {
        letter-spacing: 0em;
      }

      .st34 {
        letter-spacing: 0em;
      }

      .st35 {
        letter-spacing: 0em;
      }

      .st36 {
        letter-spacing: 0em;
      }

      .st37 {
        letter-spacing: 0em;
      }

      .st38 {
        letter-spacing: 0em;
      }

      .st39 {
        letter-spacing: 0em;
      }

      .st40 {
        letter-spacing: 0em;
      }

      .st41 {
        letter-spacing: 0em;
      }

      .st42 {
        letter-spacing: 0em;
      }

      .st43 {
        letter-spacing: 0em;
      }

      .st44 {
        letter-spacing: 0em;
      }

      .st45 {
        letter-spacing: 0em;
      }

      .st46 {
        letter-spacing: 0em;
      }

      .st47 {
        letter-spacing: 0em;
      }

      .st48 {
        letter-spacing: 0em;
      }

      .st49 {
        letter-spacing: 0em;
      }

      .st50 {
        letter-spacing: 0em;
      }

      .st51 {
        letter-spacing: 0em;
      }

      .st52 {
        letter-spacing: 0em;
      }

      .st53 {
        letter-spacing: 0em;
      }

      .st54 {
        letter-spacing: 0em;
      }

      .st55 {
        letter-spacing: 0em;
      }

      .st56 {
        letter-spacing: 0em;
      }

      .st57 {
        letter-spacing: 0em;
      }

      .st58 {
        fill: #f2614d;
      }

      .st59 {
        letter-spacing: 0em;
      }

      .st60 {
        letter-spacing: 0em;
      }

      .st61 {
        letter-spacing: 0em;
      }

      .st62 {
        letter-spacing: 0em;
      }

      .st63 {
        letter-spacing: 0em;
      }

      .st64 {
        letter-spacing: 0em;
      }

      .st65 {
        letter-spacing: 0em;
      }

      .st66 {
        letter-spacing: 0em;
      }

      .st67 {
        letter-spacing: 0em;
      }

      .st68 {
        letter-spacing: 0em;
      }

      .st69 {
        letter-spacing: 0em;
      }

      .st70 {
        letter-spacing: 0em;
      }

      .st71 {
        letter-spacing: 0em;
      }

      .st72 {
        clip-path: url(#clippath);
      }

      .st73 {
        letter-spacing: 0em;
      }

      .st74 {
        fill: #8f88fa;
      }

      .st75 {
        letter-spacing: 0em;
      }

      .st76 {
        letter-spacing: 0em;
      }

      .st77 {
        letter-spacing: 0em;
      }

      .st78 {
        letter-spacing: 0em;
      }

      .st79 {
        letter-spacing: 0em;
      }

      .st80 {
        letter-spacing: 0em;
      }

      .st81 {
        letter-spacing: 0em;
      }

      .st82 {
        letter-spacing: 0em;
      }

      .st83 {
        letter-spacing: 0em;
      }

      .st84 {
        letter-spacing: 0em;
      }

      .st85 {
        letter-spacing: 0em;
      }

      .st86 {
        letter-spacing: 0em;
      }

      .st87 {
        letter-spacing: 0em;
      }

      .st88 {
        letter-spacing: 0em;
      }

      .st89 {
        letter-spacing: 0em;
      }

      .st90 {
        letter-spacing: 0em;
      }

      .st91 {
        letter-spacing: 0em;
      }

      .st92 {
        letter-spacing: 0em;
      }

      .st93 {
        letter-spacing: 0em;
      }

      .st94 {
        letter-spacing: 0em;
      }

      .st95 {
        letter-spacing: 0em;
      }

      .st96 {
        letter-spacing: 0em;
      }

      .st97 {
        letter-spacing: 0em;
      }

      .st98 {
        letter-spacing: 0em;
      }

      .st99 {
        letter-spacing: 0em;
      }

      .st100 {
        letter-spacing: 0em;
      }

      .st3 {
        stroke-dasharray: 7 4;
      }

      .st101 {
        letter-spacing: 0em;
      }

      .st102 {
        letter-spacing: 0em;
      }

      .st103 {
        letter-spacing: 0em;
      }

      .st104 {
        letter-spacing: 0em;
      }
    </style>
    <clipPath id="clippath">
      <rect class="st0" width="1080" height="1080"/>
    </clipPath>
    <clipPath id="clippath-1">
      <rect class="st0" width="1080" height="1080"/>
    </clipPath>
    <clipPath id="clippath-2">
      <rect class="st0" width="1080" height="1080"/>
    </clipPath>
    <clipPath id="clippath-3">
      <rect class="st0" width="1080" height="1080"/>
    </clipPath>
    <clipPath id="clippath-4">
      <rect class="st0" width="1080" height="1080"/>
    </clipPath>
    <clipPath id="clippath-5">
      <rect class="st0" width="1080" height="1080"/>
    </clipPath>
    <clipPath id="clippath-6">
      <rect class="st0" x="146.4" y="266.1" width="737.2" height="676.4"/>
    </clipPath>
    <clipPath id="clippath-7">
      <rect class="st0" width="1080" height="1080"/>
    </clipPath>
    <clipPath id="clippath-8">
      <rect class="st0" width="1080" height="1080"/>
    </clipPath>
    <clipPath id="clippath-9">
      <rect class="st0" width="1080" height="1080"/>
    </clipPath>
    <clipPath id="clippath-10">
      <rect class="st0" width="1080" height="1080"/>
    </clipPath>
    <clipPath id="clippath-11">
      <rect class="st0" width="1080" height="1080"/>
    </clipPath>
    <clipPath id="clippath-12">
      <rect class="st0" width="1080" height="1080"/>
    </clipPath>
    <clipPath id="clippath-13">
      <rect class="st0" width="1080" height="1080"/>
    </clipPath>
  </defs>
  <g class="st72">
    <rect class="st58" x="25" y="43.5" width="370.5" height="73.3"/>
    <rect class="st74" x="391.6" y="43.5" width="454.9" height="73.3"/>
    <text class="st5" transform="translate(41.3 100.8)"><tspan x="0" y="0">TIM</tspan><tspan class="st76" x="102.9" y="0">E</tspan><tspan class="st34" x="139.8" y="0">T</tspan><tspan x="169.5" y="0">A</tspan><tspan class="st50" x="215.7" y="0">B</tspan><tspan class="st65" x="257.8" y="0">L</tspan><tspan x="291.8" y="0">E</tspan></text>
    <text class="st5" transform="translate(395.5 100.8)"><tspan class="st40" x="0" y="0">F</tspan><tspan class="st67" x="32.1" y="0">A</tspan><tspan class="st31" x="79.8" y="0">SHION</tspan><tspan class="st79" x="272.5" y="0">L</tspan><tspan x="309.2" y="0">A</tspan><tspan class="st98" x="355.3" y="0">B</tspan><tspan x="398.5" y="0">S</tspan></text>
    <text class="st8" transform="translate(57 216.1)"><tspan class="st53" x="0" y="0">1</tspan><tspan x="7.7" y="0">5:00</tspan></text>
    <g class="st13">
      <rect class="st58" x="335" y="149.6" width="168.8" height="32.1"/>
      <rect class="st74" x="167" y="149.6" width="168.8" height="32.1"/>
    </g>
    <text class="st6" transform="translate(219.9 172.8)"><tspan class="st80" x="0" y="0">‘</tspan><tspan x="6.7" y="0">t </tspan><tspan class="st52" x="20" y="0">H</tspan><tspan x="35" y="0">a</tspan><tspan class="st77" x="46.9" y="0">r</tspan><tspan x="55.9" y="0">t</tspan></text>
    <text class="st6" transform="translate(395.8 173.6)"><tspan class="st52" x="0" y="0">V</tspan><tspan x="14.9" y="0">ide</tspan></text>
    <g class="st16">
      <rect class="st74" x="504.7" y="149.6" width="168.8" height="32.1"/>
    </g>
    <text class="st6" transform="translate(555.7 172.8)"><tspan class="st53" x="0" y="0">F</tspan><tspan x="11.8" y="0">o</tspan><tspan class="st24" x="24.5" y="0">r</tspan><tspan x="32.4" y="0">um</tspan></text>
    <g class="st14">
      <rect class="st58" x="674.2" y="149.6" width="168.8" height="32.1"/>
    </g>
    <text class="st6" transform="translate(703 172.8)"><tspan class="st47" x="0" y="0">H</tspan><tspan x="15.2" y="0">o</tspan><tspan class="st100" x="27.9" y="0">r</tspan><tspan class="st82" x="36" y="0">e</tspan><tspan class="st75" x="47.9" y="0">c</tspan><tspan x="58.2" y="0">a </tspan><tspan class="st91" x="75.1" y="0">b</tspan><tspan x="87.5" y="0">ar</tspan></text>
    <g class="st15">
      <line class="st1" x1="335" y1="191.3" x2="335" y2="963.5"/>
      <line class="st1" x1="503.8" y1="191.3" x2="503.8" y2="963.5"/>
      <line class="st1" x1="673.5" y1="191.3" x2="673.5" y2="963.5"/>
      <line class="st1" x1="843.1" y1="191.3" x2="843.1" y2="963.5"/>
      <line class="st1" x1="167" y1="191.3" x2="167" y2="963.5"/>
    </g>
    <text class="st8" transform="translate(57 329)"><tspan class="st66" x="0" y="0">1</tspan><tspan x="7.9" y="0">6:00</tspan></text>
    <text class="st8" transform="translate(57 441.2)"><tspan x="0" y="0">17:00</tspan></text>
    <text class="st8" transform="translate(57.3 554.1)"><tspan class="st64" x="0" y="0">1</tspan><tspan x="7.9" y="0">8:00</tspan></text>
    <text class="st8" transform="translate(51.4 666.7)"><tspan class="st54" x="0" y="0">1</tspan><tspan x="7.7" y="0">9:00</tspan></text>
    <text class="st8" transform="translate(57 779.5)"><tspan class="st55" x="0" y="0">2</tspan><tspan x="11" y="0">0:00</tspan></text>
    <text class="st8" transform="translate(57 892.6)"><tspan x="0" y="0">21:00</tspan></text>
    <g class="st21">
      <line class="st2" x1="146.4" y1="207.3" x2="149.9" y2="207.3"/>
      <line class="st3" x1="153.9" y1="207.3" x2="878.2" y2="207.3"/>
      <line class="st2" x1="880.2" y1="207.3" x2="883.7" y2="207.3"/>
      <line class="st2" x1="146.4" y1="322" x2="149.9" y2="322"/>
      <line class="st3" x1="153.9" y1="322" x2="878.2" y2="322"/>
      <line class="st2" x1="880.2" y1="322" x2="883.7" y2="322"/>
      <line class="st2" x1="146.4" y1="432.7" x2="149.9" y2="432.7"/>
      <line class="st3" x1="153.9" y1="432.7" x2="878.2" y2="432.7"/>
      <line class="st2" x1="880.2" y1="432.7" x2="883.7" y2="432.7"/>
      <line class="st2" x1="146.4" y1="547.4" x2="149.9" y2="547.4"/>
      <line class="st3" x1="153.9" y1="547.4" x2="878.2" y2="547.4"/>
      <line class="st2" x1="880.2" y1="547.4" x2="883.7" y2="547.4"/>
      <line class="st2" x1="146.4" y1="657.5" x2="149.9" y2="657.5"/>
      <line class="st3" x1="153.9" y1="657.5" x2="878.2" y2="657.5"/>
      <line class="st2" x1="880.2" y1="657.5" x2="883.7" y2="657.5"/>
      <line class="st2" x1="146.4" y1="772.3" x2="149.9" y2="772.3"/>
      <line class="st3" x1="153.9" y1="772.3" x2="878.2" y2="772.3"/>
      <line class="st2" x1="880.2" y1="772.3" x2="883.7" y2="772.3"/>
      <line class="st2" x1="146.4" y1="882.7" x2="149.9" y2="882.7"/>
      <line class="st3" x1="153.9" y1="882.7" x2="878.2" y2="882.7"/>
      <line class="st2" x1="880.2" y1="882.7" x2="883.7" y2="882.7"/>
      <g class="st32">
        <g class="st18">
          <line class="st2" x1="146.4" y1="266.6" x2="149.9" y2="266.6"/>
          <line class="st3" x1="153.9" y1="266.6" x2="878.2" y2="266.6"/>
          <line class="st2" x1="880.2" y1="266.6" x2="883.7" y2="266.6"/>
          <line class="st2" x1="146.4" y1="381.4" x2="149.9" y2="381.4"/>
          <line class="st3" x1="153.9" y1="381.4" x2="878.2" y2="381.4"/>
          <line class="st2" x1="880.2" y1="381.4" x2="883.7" y2="381.4"/>
          <line class="st2" x1="146.4" y1="492" x2="149.9" y2="492"/>
          <line class="st3" x1="153.9" y1="492" x2="878.2" y2="492"/>
          <line class="st2" x1="880.2" y1="492" x2="883.7" y2="492"/>
          <line class="st2" x1="146.4" y1="606.8" x2="149.9" y2="606.8"/>
          <line class="st3" x1="153.9" y1="606.8" x2="878.2" y2="606.8"/>
          <line class="st2" x1="880.2" y1="606.8" x2="883.7" y2="606.8"/>
          <line class="st2" x1="146.4" y1="716.9" x2="149.9" y2="716.9"/>
          <line class="st3" x1="153.9" y1="716.9" x2="878.2" y2="716.9"/>
          <line class="st2" x1="880.2" y1="716.9" x2="883.7" y2="716.9"/>
          <line class="st2" x1="146.4" y1="831.6" x2="149.9" y2="831.6"/>
          <line class="st3" x1="153.9" y1="831.6" x2="878.2" y2="831.6"/>
          <line class="st2" x1="880.2" y1="831.6" x2="883.7" y2="831.6"/>
          <line class="st2" x1="146.4" y1="942" x2="149.9" y2="942"/>
          <line class="st3" x1="153.9" y1="942" x2="878.2" y2="942"/>
          <line class="st2" x1="880.2" y1="942" x2="883.7" y2="942"/>
        </g>
      </g>
      <rect class="st58" x="335" y="266.6" width="168.8" height="225.4"/>
    </g>
    <text class="st6" transform="translate(341.4 296.5)"><tspan x="0" y="0">P</tspan><tspan class="st94" x="13.2" y="0">i</tspan><tspan x="19.7" y="0">t</tspan><tspan class="st87" x="28" y="0">c</tspan><tspan x="38.2" y="0">h</tspan><tspan class="st75" x="50.5" y="0">e</tspan><tspan x="62.6" y="0">s </tspan><tspan class="st33" x="78.5" y="0">T</tspan><tspan class="st95" x="88.2" y="0">e</tspan><tspan class="st25" x="100.2" y="0">x</tspan><tspan class="st89" x="111.2" y="0">l</tspan><tspan x="117.5" y="0">ab</tspan></text>
    <text class="st4" transform="translate(341.4 318.1)"><tspan class="st42" x="0" y="0">F</tspan><tspan class="st30" x="8.5" y="0">a</tspan><tspan class="st59" x="17.5" y="0">s</tspan><tspan class="st23" x="25.6" y="0">hion d</tspan><tspan class="st73" x="71.2" y="0">e</tspan><tspan x="80.4" y="0">s</tspan><tspan class="st51" x="88.6" y="0">i</tspan><tspan class="st88" x="93" y="0">g</tspan><tspan x="103" y="0">ne</tspan><tspan class="st68" x="121.1" y="0">r</tspan><tspan x="127.4" y="0">s</tspan></text>
    <g class="st17">
      <rect class="st74" x="167" y="492" width="168.8" height="114.3"/>
    </g>
    <text class="st6" transform="translate(173.4 521.9)"><tspan class="st44" x="0" y="0">F</tspan><tspan class="st89" x="11.4" y="0">a</tspan><tspan class="st49" x="23.4" y="0">s</tspan><tspan x="34.3" y="0">hio</tspan><tspan class="st87" x="65.5" y="0">n</tspan><tspan class="st61" x="77.9" y="0">s</tspan><tspan x="88.8" y="0">h</tspan><tspan class="st95" x="101.1" y="0">o</tspan><tspan x="114" y="0">w</tspan></text>
    <text class="st4" transform="translate(173.4 543.5)"><tspan class="st78" x="0" y="0">K</tspan><tspan x="10.5" y="0">ap</tspan><tspan class="st101" x="28.7" y="0">p</tspan><tspan x="38.1" y="0">e</tspan><tspan class="st69" x="46.9" y="0">r</tspan><tspan x="53.2" y="0">s &amp; </tspan><tspan class="st43" x="79.8" y="0">F</tspan><tspan x="88.3" y="0">a</tspan><tspan class="st59" x="97.3" y="0">s</tspan><tspan x="105.4" y="0">hion</tspan></text>
    <g class="st20">
      <rect class="st58" x="673.5" y="606.8" width="168.8" height="225.4"/>
    </g>
    <text class="st6" transform="translate(679.9 636.6)"><tspan class="st47" x="0" y="0">N</tspan><tspan class="st75" x="15.9" y="0">e</tspan><tspan class="st70" x="28" y="0">t</tspan><tspan class="st91" x="36.8" y="0">w</tspan><tspan x="54.7" y="0">e</tspan><tspan class="st95" x="66.5" y="0">r</tspan><tspan class="st82" x="74.5" y="0">k</tspan><tspan class="st86" x="85.8" y="0">b</tspan><tspan x="98.2" y="0">o</tspan><tspan class="st101" x="110.9" y="0">r</tspan><tspan class="st100" x="118.9" y="0">r</tspan><tspan class="st59" x="126.9" y="0">e</tspan><tspan x="138.6" y="0">l</tspan></text>
    <text class="st4" transform="translate(679.9 658.2)"><tspan class="st88" x="0" y="0">B</tspan><tspan class="st103" x="11.1" y="0">e</tspan><tspan x="20.1" y="0">d</tspan><tspan class="st81" x="29.3" y="0">rijv</tspan><tspan x="53.5" y="0">en</tspan></text>
    <text class="st4" transform="translate(679.9 679.8)"><tspan class="st48" x="0" y="0">C</tspan><tspan x="9.6" y="0">oll</tspan><tspan class="st45" x="28.4" y="0">e</tspan><tspan class="st63" x="37.2" y="0">g</tspan><tspan class="st39" x="47.1" y="0">a</tspan><tspan class="st38" x="55.7" y="0">’</tspan><tspan x="59.9" y="0">s</tspan></text>
    <text class="st4" transform="translate(679.9 701.4)"><tspan x="0" y="0">Studenten</tspan></text>
    <g class="st19">
      <rect class="st74" x="504.7" y="656.5" width="168.8" height="60.4"/>
    </g>
    <text class="st6" transform="translate(511.1 686.4)"><tspan class="st83" x="0" y="0">A</tspan><tspan x="16.1" y="0">i </tspan><tspan class="st35" x="27.2" y="0">T</tspan><tspan x="37.5" y="0">alk</tspan></text>
    <text class="st4" transform="translate(511.1 708)"><tspan x="0" y="0">d</tspan><tspan class="st104" x="9.3" y="0">o</tspan><tspan x="18.9" y="0">or </tspan><tspan class="st46" x="38" y="0">E</tspan><tspan x="47.2" y="0">lmo M</tspan><tspan class="st92" x="92.3" y="0">i</tspan><tspan class="st102" x="97.2" y="0">s</tspan><tspan class="st101" x="105.5" y="0">t</tspan><tspan class="st88" x="111.9" y="0">i</tspan><tspan class="st60" x="116.6" y="0">a</tspan><tspan x="125.5" y="0">en</tspan></text>
    <g class="st10">
      <rect class="st58" x="335" y="716.1" width="168.8" height="89.7"/>
    </g>
    <text class="st6" transform="translate(341.4 746)"><tspan class="st27" x="0" y="0">G</tspan><tspan class="st61" x="14.9" y="0">ra</tspan><tspan class="st56" x="34.5" y="0">d</tspan><tspan class="st89" x="46.7" y="0">u</tspan><tspan class="st49" x="59.1" y="0">a</tspan><tspan class="st83" x="70.9" y="0">t</tspan><tspan x="79.4" y="0">ion </tspan></text>
    <text class="st6" transform="translate(341.4 774.8)"><tspan x="0" y="0">P</tspan><tspan class="st94" x="13.2" y="0">i</tspan><tspan x="19.7" y="0">t</tspan><tspan class="st87" x="28" y="0">c</tspan><tspan x="38.2" y="0">h</tspan><tspan class="st75" x="50.5" y="0">e</tspan><tspan x="62.6" y="0">s</tspan></text>
    <text class="st4" transform="translate(341.4 796.4)"><tspan class="st42" x="0" y="0">F</tspan><tspan class="st30" x="8.5" y="0">a</tspan><tspan class="st59" x="17.5" y="0">s</tspan><tspan class="st23" x="25.6" y="0">hion d</tspan><tspan class="st73" x="71.2" y="0">e</tspan><tspan x="80.4" y="0">s</tspan><tspan class="st51" x="88.6" y="0">i</tspan><tspan class="st88" x="93" y="0">g</tspan><tspan x="103" y="0">ne</tspan><tspan class="st68" x="121.1" y="0">r</tspan><tspan x="127.4" y="0">s</tspan></text>
    <g class="st9">
      <rect class="st74" x="504.3" y="771.5" width="168.8" height="60.4"/>
    </g>
    <text class="st6" transform="translate(510.6 801.3)"><tspan class="st27" x="0" y="0">G</tspan><tspan class="st61" x="14.9" y="0">ra</tspan><tspan class="st55" x="34.5" y="0">d</tspan><tspan class="st94" x="46.7" y="0">u</tspan><tspan class="st85" x="59.3" y="0">t</tspan><tspan class="st29" x="67.7" y="0">ion </tspan><tspan class="st36" x="103.8" y="0">T</tspan><tspan x="114.1" y="0">alk</tspan></text>
    <text class="st4" transform="translate(510.6 822.9)"><tspan x="0" y="0">in g</tspan><tspan class="st73" x="27.5" y="0">e</tspan><tspan class="st26" x="36.7" y="0">s</tspan><tspan x="44.9" y="0">p</tspan><tspan class="st101" x="54.2" y="0">r</tspan><tspan x="60.2" y="0">ek m</tspan><tspan class="st93" x="95.5" y="0">e</tspan><tspan class="st22" x="104.5" y="0">t ....</tspan></text>
    <g class="st12">
      <rect class="st74" x="167" y="831.2" width="168.8" height="114.3"/>
    </g>
    <text class="st6" transform="translate(173.4 861)"><tspan class="st25" x="0" y="0">G</tspan><tspan class="st61" x="15" y="0">ra</tspan><tspan class="st56" x="34.6" y="0">d</tspan><tspan class="st94" x="46.7" y="0">u</tspan><tspan class="st87" x="59.3" y="0">t</tspan><tspan x="67.7" y="0">ion </tspan><tspan class="st59" x="103.8" y="0">s</tspan><tspan x="114.7" y="0">h</tspan><tspan class="st96" x="127.1" y="0">o</tspan><tspan x="139.9" y="0">w</tspan></text>
    <text class="st4" transform="translate(173.4 882.6)"><tspan class="st99" x="0" y="0">B</tspan><tspan class="st30" x="11.2" y="0">as</tspan><tspan class="st94" x="28.3" y="0">i</tspan><tspan class="st23" x="33.2" y="0">s m</tspan><tspan class="st97" x="59.5" y="0">e</tspan><tspan class="st23" x="68.5" y="0">d</tspan><tspan class="st71" x="77.8" y="0">e</tspan><tspan class="st84" x="86.9" y="0">w</tspan><tspan x="100.3" y="0">e</tspan><tspan class="st92" x="109.1" y="0">r</tspan><tspan class="st23" x="115.2" y="0">ker </tspan></text>
    <text class="st4" transform="translate(173.4 904.2)"><tspan class="st99" x="0" y="0">f</tspan><tspan x="6" y="0">a</tspan><tspan class="st62" x="15" y="0">s</tspan><tspan class="st23" x="23.1" y="0">hion</tspan></text>
    <text class="st4" transform="translate(173.4 925.8)"><tspan class="st43" x="0" y="0">F</tspan><tspan x="8.5" y="0">a</tspan><tspan class="st62" x="17.5" y="0">s</tspan><tspan class="st23" x="25.6" y="0">hion </tspan><tspan class="st37" x="62" y="0">T</tspan><tspan x="69.5" y="0">ailor</tspan></text>
    <text class="st7" transform="translate(791.6 133.3)"><tspan class="st45" x="0" y="0">2</tspan><tspan class="st48" x="8.3" y="0">0</tspan><tspan class="st88" x="18.5" y="0">2</tspan><tspan x="27" y="0">5</tspan></text>
    <g class="st11">
      <rect class="st74" x="504.3" y="379.4" width="168.8" height="60.4"/>
    </g>
    <text class="st6" transform="translate(510.6 409.2)"><tspan class="st64" x="0" y="0">A</tspan><tspan class="st57" x="15.9" y="0">l</tspan><tspan class="st28" x="21.9" y="0">umni </tspan><tspan class="st36" x="77" y="0">T</tspan><tspan x="87.3" y="0">alk</tspan></text>
    <text class="st4" transform="translate(510.6 430.8)"><tspan x="0" y="0">d</tspan><tspan class="st104" x="9.3" y="0">o</tspan><tspan x="18.9" y="0">or </tspan><tspan class="st41" x="38" y="0">W</tspan><tspan class="st22" x="55.2" y="0">ani</tspan><tspan class="st90" x="78.1" y="0">d</tspan><tspan x="87.4" y="0">a </tspan><tspan class="st93" x="100" y="0">K</tspan><tspan class="st101" x="110.2" y="0">r</tspan><tspan x="116.2" y="0">eke</tspan><tspan class="st99" x="142.2" y="0">l</tspan><tspan x="147" y="0">s</tspan></text>
  </g>
</svg>